<?xml version="1.0" encoding="UTF-8" standalone="no"?>
<svg
   xmlns:dc="http://purl.org/dc/elements/1.1/"
   xmlns:cc="http://creativecommons.org/ns#"
   xmlns:rdf="http://www.w3.org/1999/02/22-rdf-syntax-ns#"
   xmlns:svg="http://www.w3.org/2000/svg"
   xmlns="http://www.w3.org/2000/svg"
   viewBox="0 0 220.85799 249.34497"
   height="249.34497"
   width="220.85799"
   id="svg869"
   version="1.1">
  <metadata
     id="metadata875">
    <rdf:RDF>
      <cc:Work
         rdf:about="">
        <dc:format>image/svg+xml</dc:format>
        <dc:type
           rdf:resource="http://purl.org/dc/dcmitype/StillImage" />
        <dc:title></dc:title>
      </cc:Work>
    </rdf:RDF>
  </metadata>
  <defs
     id="defs873" />
  <path
     id="path879"
     d="m 130.18269,248.09917 c -6.07635,-1.84834 -11.88571,-5.40411 -16.70836,-10.22676 -3.84737,-3.84736 -6.78464,-5.243 -15.330035,-7.28402 C 70.890718,224.07906 51.066841,213.22401 32.661282,194.73155 21.219582,183.23585 19.062662,180.27142 13.145542,167.90954 -3.1127884,133.94305 -4.2525984,103.38953 9.5182916,70.678288 13.549002,61.103774 22.788752,46.198258 29.710112,38.104953 c 2.46467,-2.881998 4.481218,-6.045404 4.481218,-7.02979 0,-5.435532 -19.810058,-20.396877 -27.0071484,-20.396877 -4.9743,0 -0.63486,-2.6669709 10.0603804,-6.1829919 9.63553,-3.167643 13.10287,-3.60735305 28.946768,-3.67087705 12.651484,-0.05072 20.377118,0.57221405 26,2.09645005 7.532625,2.041924 8.662125,2.022143 19.333325,-0.338584 15.567975,-3.44400805 38.829625,-3.44291305 52.300915,0.0025 12.67407,3.241481 27.56368,10.6847949 34.89838,17.4456919 6.89906,6.359316 12.26522,15.936336 13.45726,24.017229 0.81985,5.557845 1.50944,6.436872 8.70428,11.095436 12.14702,7.86503 19.97249,15.283958 19.97249,18.934918 0,8.06424 -13.36157,8.04271 -38.65383,-0.0623 -49.48649,-15.858141 -83.241845,-13.151905 -104.795405,8.40166 -4.057278,4.05728 -9.026214,10.941179 -11.447055,15.858609 -3.781738,7.681803 -4.286828,10.025293 -4.35638,20.212443 -0.09292,13.60919 1.839217,19.95095 8.235422,27.03079 l 4.660903,5.15906 h -4.864647 c -2.675553,0 -7.037494,-0.90788 -9.693203,-2.01751 -2.65571,-1.10962 -5.007528,-1.83853 -5.226264,-1.6198 -0.218736,0.21875 0.513412,4.87662 1.626996,10.35084 5.841165,28.71435 26.072088,52.54153 49.903303,58.77416 5.96415,1.55981 6.15731,1.5066 12.66667,-3.48967 12.85675,-9.86822 28.58437,-15.56014 48.02999,-17.38236 l 10.57577,-0.99102 -10.66447,8.06344 c -19.83669,14.9986 -24.01897,21.72497 -23.0356,37.04814 l 0.63731,9.93044 -5.46643,-0.11453 c -3.00652,-0.0631 -6.97029,-0.57207 -8.80837,-1.13119 z"
     style="fill:#00afb9;stroke-width:1.33333325;fill-opacity:1" />
</svg>
