<?xml version="1.0" encoding="UTF-8" standalone="no"?>
<svg
   xmlns:dc="http://purl.org/dc/elements/1.1/"
   xmlns:cc="http://creativecommons.org/ns#"
   xmlns:rdf="http://www.w3.org/1999/02/22-rdf-syntax-ns#"
   xmlns:svg="http://www.w3.org/2000/svg"
   xmlns="http://www.w3.org/2000/svg"
   version="1.1"
   id="svg869"
   width="961.44171"
   height="249.34499"
   viewBox="0 0 961.4417 249.34499">
  <metadata
     id="metadata875">
    <rdf:RDF>
      <cc:Work
         rdf:about="">
        <dc:format>image/svg+xml</dc:format>
        <dc:type
           rdf:resource="http://purl.org/dc/dcmitype/StillImage" />
        <dc:title></dc:title>
      </cc:Work>
    </rdf:RDF>
  </metadata>
  <defs
     id="defs873" />
  <path
     style="fill:#00afb9;fill-opacity:1;stroke-width:1.33333325"
     d="m 130.18269,248.09917 c -6.07635,-1.84834 -11.88571,-5.40411 -16.70836,-10.22676 -3.84737,-3.84736 -6.78464,-5.243 -15.330038,-7.28402 -27.25358,-6.50933 -47.07745,-17.36438 -65.48301,-35.85684 -11.4417,-11.4957 -13.59862,-14.46013 -19.51574,-26.82201 C -3.1127885,133.94305 -4.2525985,103.38953 9.5182915,70.678288 13.549002,61.103774 22.788752,46.198258 29.710112,38.104953 c 2.46467,-2.881998 4.48122,-6.045404 4.48122,-7.02979 0,-5.435532 -19.81006,-20.396877 -27.0071505,-20.396877 -4.9743,0 -0.63486,-2.6669712 10.0603805,-6.1829922 9.63553,-3.1676427 13.10287,-3.60735276 28.94677,-3.67087676 12.65148,-0.05072 20.37711,0.57221406 26,2.09645006 7.53262,2.0419237 8.66212,2.0221427 19.33332,-0.338584 15.567978,-3.44400806 38.829628,-3.44291306 52.300918,0.0025 12.67407,3.2414807 27.56368,10.6847949 34.89838,17.4456919 6.89906,6.359316 12.26522,15.936336 13.45726,24.017229 0.81985,5.557845 1.50944,6.436872 8.70428,11.095436 12.14702,7.86503 19.97249,15.283958 19.97249,18.934918 0,8.06424 -13.36157,8.04271 -38.65383,-0.0623 -49.48649,-15.858141 -83.241848,-13.151905 -104.795408,8.40166 -4.05728,4.05728 -9.02621,10.941179 -11.44705,15.858609 -3.78174,7.681803 -4.28683,10.025293 -4.35638,20.212443 -0.0929,13.60919 1.83921,19.95095 8.23542,27.03079 l 4.6609,5.15906 h -4.86465 c -2.67555,0 -7.03749,-0.90788 -9.6932,-2.01751 -2.65571,-1.10962 -5.00753,-1.83853 -5.22626,-1.6198 -0.21874,0.21875 0.51341,4.87662 1.62699,10.35084 5.84117,28.71435 26.07209,52.54153 49.903308,58.77416 5.96415,1.55981 6.15731,1.5066 12.66667,-3.48967 12.85675,-9.86822 28.58437,-15.56014 48.02999,-17.38236 l 10.57577,-0.99102 -10.66447,8.06344 c -19.83669,14.9986 -24.01897,21.72497 -23.0356,37.04814 l 0.63731,9.93044 -5.46643,-0.11453 c -3.00652,-0.0631 -6.97029,-0.57207 -8.80837,-1.13119 z"
     id="path879" />
  <g
     id="text18"
     style="font-style:normal;font-variant:normal;font-weight:normal;font-stretch:normal;font-size:40px;line-height:1.25;font-family:comfortaa;-inkscape-font-specification:comfortaa;letter-spacing:0px;word-spacing:0px;fill:#00afb9;fill-opacity:1;stroke:none"
     aria-label="Oversee">
    <path
       id="path4672"
       style="font-style:normal;font-variant:normal;font-weight:normal;font-stretch:normal;font-size:192px;font-family:comfortaa;-inkscape-font-specification:comfortaa;letter-spacing:-8.59000397px;fill:#00afb9;fill-opacity:1"
       d="m 288.75915,231.33135 q -16.704,0 -30.72,-5.76 -14.016,-5.76 -24.384,-16.128 -10.176,-10.368 -15.936,-24.384 -5.568,-14.016 -5.568,-30.72 0,-16.512 5.568,-30.528 5.76,-14.016 15.936,-24.384004 10.368,-10.368 24.384,-16.128 14.016,-5.76 30.72,-5.76 16.512,0 30.528,5.76 14.016,5.76 24.384,16.128 10.368,10.368004 15.936,24.384004 5.76,14.016 5.76,30.528 0,16.704 -5.76,30.72 -5.568,14.016 -15.936,24.384 -10.368,10.368 -24.384,16.128 -14.016,5.76 -30.528,5.76 z m 0,-14.208 q 13.248,0 24.576,-4.608 11.328,-4.8 19.584,-13.248 8.448,-8.64 13.056,-19.968 4.608,-11.52 4.608,-24.96 0,-13.248 -4.608,-24.576 -4.608,-11.52 -13.056,-19.968 -8.256,-8.64 -19.584,-13.248004 -11.328,-4.8 -24.576,-4.8 -13.44,0 -24.768,4.8 -11.328,4.608004 -19.776,13.248004 -8.256,8.448 -12.864,19.968 -4.608,11.328 -4.608,24.576 0,13.44 4.608,24.96 4.608,11.328 12.864,19.968 8.448,8.448 19.776,13.248 11.328,4.608 24.768,4.608 z" />
    <path
       id="path4674"
       style="font-style:normal;font-variant:normal;font-weight:normal;font-stretch:normal;font-size:192px;font-family:comfortaa;-inkscape-font-specification:comfortaa;letter-spacing:-8.59000397px;fill:#00afb9;fill-opacity:1"
       d="m 421.67306,229.41135 q -4.608,0 -6.912,-4.992 l -42.624,-90.432 q -1.152,-2.496 -0.192,-4.992 0.96,-2.496 3.84,-3.84 2.688,-1.344 5.184,-0.384 2.496,0.96 3.84,3.456 l 40.896,88.512 h -7.872 l 40.32,-88.512 q 1.152,-2.688 3.84,-3.456 2.88,-0.96 5.568,0.192 2.688,1.344 3.648,4.032 0.96,2.496 -0.192,4.8 l -42.048,90.624 q -2.304,4.992 -7.296,4.992 z" />
    <path
       id="path4676"
       style="font-style:normal;font-variant:normal;font-weight:normal;font-stretch:normal;font-size:192px;font-family:comfortaa;-inkscape-font-specification:comfortaa;letter-spacing:-8.59000397px;fill:#00afb9;fill-opacity:1"
       d="m 527.13088,230.37135 q -15.552,0 -27.648,-6.72 -11.904,-6.912 -18.816,-19.008 -6.72,-12.096 -6.72,-27.648 0,-15.744 6.336,-27.648 6.528,-12.096 17.856,-19.008 11.328,-6.912 26.112,-6.912 14.592,0 25.344,6.72 10.944,6.528 16.896,18.24 5.952,11.712 5.952,26.688 0,3.072 -1.92,4.992 -1.92,1.728 -4.992,1.728 h -81.6 v -12.288 h 83.136 l -8.256,5.952 q 0.192,-11.136 -4.032,-19.968 -4.224,-8.832 -12.096,-13.824 -7.68,-4.992 -18.432,-4.992 -10.944,0 -19.2,5.184 -8.256,5.184 -12.864,14.4 -4.416,9.024 -4.416,20.736 0,11.712 4.992,20.736 5.184,9.024 14.016,14.208 8.832,5.184 20.352,5.184 6.912,0 13.824,-2.304 7.104,-2.496 11.328,-6.144 2.112,-1.728 4.8,-1.728 2.688,-0.192 4.608,1.344 2.496,2.304 2.496,4.992 0.192,2.688 -2.112,4.608 -6.336,5.376 -16.128,9.024 -9.792,3.456 -18.816,3.456 z" />
    <path
       id="path4678"
       style="font-style:normal;font-variant:normal;font-weight:normal;font-stretch:normal;font-size:192px;font-family:comfortaa;-inkscape-font-specification:comfortaa;letter-spacing:-8.59000397px;fill:#00afb9;fill-opacity:1"
       d="m 594.95655,164.70735 q 0.576,-11.904 6.144,-21.312 5.76,-9.408 14.784,-14.784 9.216,-5.376 20.352,-5.376 8.832,0 13.632,2.496 4.8,2.496 3.648,7.296 -0.768,2.88 -2.688,3.84 -1.728,0.96 -4.416,0.768 -2.496,-0.192 -5.76,-0.384 -10.752,-0.96 -19.2,2.304 -8.256,3.072 -13.248,9.6 -4.8,6.528 -4.8,15.552 z m 1.152,64.704 q -3.456,0 -5.376,-1.92 -1.92,-1.92 -1.92,-5.376 v -90.432 q 0,-3.456 1.92,-5.376 1.92,-1.92 5.376,-1.92 3.456,0 5.376,1.92 1.92,1.92 1.92,5.376 v 90.432 q 0,3.456 -1.92,5.376 -1.92,1.92 -5.376,1.92 z" />
    <path
       id="path4680"
       style="font-style:normal;font-variant:normal;font-weight:normal;font-stretch:normal;font-size:192px;font-family:comfortaa;-inkscape-font-specification:comfortaa;letter-spacing:-8.59000397px;fill:#00afb9;fill-opacity:1"
       d="m 704.83022,230.37135 q -11.328,0 -22.464,-3.84 -11.136,-3.84 -18.048,-11.52 -2.112,-2.304 -1.728,-5.184 0.384,-2.88 2.88,-4.992 2.688,-1.92 5.568,-1.536 2.88,0.384 4.8,2.496 4.608,5.376 12.096,8.256 7.68,2.88 16.896,2.88 14.208,0 20.544,-4.8 6.336,-4.992 6.528,-11.904 0,-6.912 -6.528,-11.328 -6.528,-4.608 -21.504,-7.104 -19.392,-3.072 -28.416,-10.752 -9.024,-7.68 -9.024,-18.24 0,-9.792 5.184,-16.32 5.184,-6.528 13.824,-9.792 8.64,-3.264 19.008,-3.264 12.864,0 22.08,4.416 9.408,4.416 15.168,11.904 1.92,2.496 1.536,5.184 -0.384,2.688 -3.072,4.416 -2.304,1.344 -5.376,0.96 -2.88,-0.576 -4.992,-2.88 -4.8,-5.568 -11.136,-8.064 -6.336,-2.688 -14.592,-2.688 -10.56,0 -16.896,4.416 -6.336,4.224 -6.336,10.752 0,4.416 2.304,7.68 2.496,3.264 8.256,5.76 5.952,2.496 16.512,4.224 14.4,2.304 22.656,6.912 8.448,4.416 11.904,10.56 3.648,5.952 3.648,13.056 0,9.024 -5.376,15.936 -5.184,6.72 -14.592,10.56 -9.216,3.84 -21.312,3.84 z" />
    <path
       id="path4682"
       style="font-style:normal;font-variant:normal;font-weight:normal;font-stretch:normal;font-size:192px;font-family:comfortaa;-inkscape-font-specification:comfortaa;letter-spacing:-8.59000397px;fill:#00afb9;fill-opacity:1"
       d="m 810.67214,230.37135 q -15.552,0 -27.648,-6.72 -11.904,-6.912 -18.816,-19.008 -6.72,-12.096 -6.72,-27.648 0,-15.744 6.336,-27.648 6.528,-12.096 17.856,-19.008 11.328,-6.912 26.112,-6.912 14.592,0 25.344,6.72 10.944,6.528 16.896,18.24 5.952,11.712 5.952,26.688 0,3.072 -1.92,4.992 -1.92,1.728 -4.992,1.728 h -81.6 v -12.288 h 83.136 l -8.256,5.952 q 0.192,-11.136 -4.032,-19.968 -4.224,-8.832 -12.096,-13.824 -7.68,-4.992 -18.432,-4.992 -10.944,0 -19.2,5.184 -8.256,5.184 -12.864,14.4 -4.416,9.024 -4.416,20.736 0,11.712 4.992,20.736 5.184,9.024 14.016,14.208 8.832,5.184 20.352,5.184 6.912,0 13.824,-2.304 7.104,-2.496 11.328,-6.144 2.112,-1.728 4.8,-1.728 2.688,-0.192 4.608,1.344 2.496,2.304 2.496,4.992 0.192,2.688 -2.112,4.608 -6.336,5.376 -16.128,9.024 -9.792,3.456 -18.816,3.456 z" />
    <path
       id="path4684"
       style="font-style:normal;font-variant:normal;font-weight:normal;font-stretch:normal;font-size:192px;font-family:comfortaa;-inkscape-font-specification:comfortaa;letter-spacing:-8.59000397px;fill:#00afb9;fill-opacity:1"
       d="m 916.12972,230.37135 q -15.552,0 -27.648,-6.72 -11.904,-6.912 -18.816,-19.008 -6.72,-12.096 -6.72,-27.648 0,-15.744 6.336,-27.648 6.528,-12.096 17.856,-19.008 11.328,-6.912 26.112,-6.912 14.592,0 25.344,6.72 10.944,6.528 16.896,18.24 5.952,11.712 5.952,26.688 0,3.072 -1.92,4.992 -1.92,1.728 -4.992,1.728 h -81.6 v -12.288 h 83.136 l -8.256,5.952 q 0.192,-11.136 -4.032,-19.968 -4.224,-8.832 -12.096,-13.824 -7.68,-4.992 -18.432,-4.992 -10.944,0 -19.2,5.184 -8.256,5.184 -12.864,14.4 -4.416,9.024 -4.416,20.736 0,11.712 4.992,20.736 5.184,9.024 14.016,14.208 8.832,5.184 20.352,5.184 6.912,0 13.824,-2.304 7.104,-2.496 11.328,-6.144 2.112,-1.728 4.8,-1.728 2.688,-0.192 4.608,1.344 2.496,2.304 2.496,4.992 0.192,2.688 -2.112,4.608 -6.336,5.376 -16.128,9.024 -9.792,3.456 -18.816,3.456 z" />
  </g>
  <flowRoot
     style="font-style:normal;font-variant:normal;font-weight:normal;font-stretch:normal;font-size:40px;line-height:1.25;font-family:comfortaa;-inkscape-font-specification:comfortaa;letter-spacing:0px;word-spacing:0px;fill:#000000;fill-opacity:1;stroke:none"
     id="flowRoot106"
     xml:space="preserve"><flowRegion
       id="flowRegion108"><rect
         y="-137.18849"
         x="365.34195"
         height="190.72375"
         width="30.515802"
         id="rect110" /></flowRegion><flowPara
       id="flowPara112"></flowPara></flowRoot></svg>
